<mxfile host="app.diagrams.net" modified="2023-04-06T03:07:39.921Z" agent="Mozilla/5.0 (Windows NT 10.0; Win64; x64) AppleWebKit/537.36 (KHTML, like Gecko) Chrome/109.0.0.0 Safari/537.36" etag="lviHf9g4NTIicR5bxkjz" version="21.1.4" type="github" pages="2">
  <diagram id="5gA6hy5lQ9h8jE4xukH1" name="告警系统">
    <mxGraphModel dx="2206" dy="1089" grid="1" gridSize="10" guides="1" tooltips="1" connect="1" arrows="1" fold="1" page="1" pageScale="1" pageWidth="827" pageHeight="1169" math="0" shadow="0">
      <root>
        <mxCell id="x3TTFfxIbDM9HAaXYY1i-0" />
        <mxCell id="x3TTFfxIbDM9HAaXYY1i-1" parent="x3TTFfxIbDM9HAaXYY1i-0" />
        <mxCell id="x3TTFfxIbDM9HAaXYY1i-3" value="&lt;font&gt;&lt;span style=&quot;font-size: 24px&quot;&gt;Streaming&lt;/span&gt;&lt;br&gt;&lt;font style=&quot;font-size: 14px&quot;&gt;(Flink/Spark)&lt;/font&gt;&lt;/font&gt;" style="rounded=1;whiteSpace=wrap;html=1;strokeColor=#d7d7d8;" parent="x3TTFfxIbDM9HAaXYY1i-1" vertex="1">
          <mxGeometry x="704" y="703" width="170" height="70" as="geometry" />
        </mxCell>
        <mxCell id="x3TTFfxIbDM9HAaXYY1i-4" value="&lt;font style=&quot;font-size: 24px&quot;&gt;Agent&lt;/font&gt;" style="rounded=1;whiteSpace=wrap;html=1;fillColor=#8ec06c;strokeColor=#b4a996;" parent="x3TTFfxIbDM9HAaXYY1i-1" vertex="1">
          <mxGeometry x="308" y="648" width="90" height="40" as="geometry" />
        </mxCell>
        <mxCell id="x3TTFfxIbDM9HAaXYY1i-5" value="&lt;font style=&quot;font-size: 24px&quot;&gt;Kafka&lt;/font&gt;" style="shape=step;perimeter=stepPerimeter;whiteSpace=wrap;html=1;fixedSize=1;strokeColor=#d7d7d8;" parent="x3TTFfxIbDM9HAaXYY1i-1" vertex="1">
          <mxGeometry x="468" y="718" width="130" height="40" as="geometry" />
        </mxCell>
        <mxCell id="x3TTFfxIbDM9HAaXYY1i-7" value="&lt;font style=&quot;font-size: 24px&quot;&gt;Agent&lt;/font&gt;" style="rounded=1;whiteSpace=wrap;html=1;fillColor=#8ec06c;strokeColor=#b4a996;" parent="x3TTFfxIbDM9HAaXYY1i-1" vertex="1">
          <mxGeometry x="308" y="703" width="90" height="40" as="geometry" />
        </mxCell>
        <mxCell id="x3TTFfxIbDM9HAaXYY1i-8" value="&lt;font style=&quot;font-size: 24px&quot;&gt;Agent&lt;/font&gt;" style="rounded=1;whiteSpace=wrap;html=1;fillColor=#8ec06c;strokeColor=#b4a996;" parent="x3TTFfxIbDM9HAaXYY1i-1" vertex="1">
          <mxGeometry x="308" y="778" width="90" height="40" as="geometry" />
        </mxCell>
        <mxCell id="x3TTFfxIbDM9HAaXYY1i-9" value="" style="endArrow=classic;html=1;rounded=0;fontSize=24;entryX=0;entryY=0.5;entryDx=0;entryDy=0;exitX=1;exitY=0.5;exitDx=0;exitDy=0;" parent="x3TTFfxIbDM9HAaXYY1i-1" source="x3TTFfxIbDM9HAaXYY1i-5" target="x3TTFfxIbDM9HAaXYY1i-3" edge="1">
          <mxGeometry width="50" height="50" relative="1" as="geometry">
            <mxPoint x="444" y="638" as="sourcePoint" />
            <mxPoint x="494" y="588" as="targetPoint" />
          </mxGeometry>
        </mxCell>
        <mxCell id="x3TTFfxIbDM9HAaXYY1i-11" value="&lt;font style=&quot;font-size: 12px&quot;&gt;metric/log/trace&lt;br&gt;&lt;/font&gt;" style="text;html=1;strokeColor=none;fillColor=none;align=center;verticalAlign=middle;whiteSpace=wrap;rounded=0;fontSize=14;" parent="x3TTFfxIbDM9HAaXYY1i-1" vertex="1">
          <mxGeometry x="603" y="708" width="86" height="30" as="geometry" />
        </mxCell>
        <mxCell id="x3TTFfxIbDM9HAaXYY1i-12" value="&lt;span style=&quot;font-size: 24px&quot;&gt;... ...&lt;/span&gt;" style="text;html=1;strokeColor=none;fillColor=none;align=center;verticalAlign=middle;whiteSpace=wrap;rounded=0;fontSize=12;" parent="x3TTFfxIbDM9HAaXYY1i-1" vertex="1">
          <mxGeometry x="323" y="738" width="60" height="30" as="geometry" />
        </mxCell>
        <mxCell id="x3TTFfxIbDM9HAaXYY1i-13" value="" style="endArrow=classic;html=1;rounded=0;fontSize=24;exitX=1;exitY=0.5;exitDx=0;exitDy=0;entryX=0;entryY=0.5;entryDx=0;entryDy=0;" parent="x3TTFfxIbDM9HAaXYY1i-1" source="x3TTFfxIbDM9HAaXYY1i-4" target="x3TTFfxIbDM9HAaXYY1i-5" edge="1">
          <mxGeometry width="50" height="50" relative="1" as="geometry">
            <mxPoint x="528" y="658" as="sourcePoint" />
            <mxPoint x="578" y="608" as="targetPoint" />
          </mxGeometry>
        </mxCell>
        <mxCell id="x3TTFfxIbDM9HAaXYY1i-14" value="" style="endArrow=classic;html=1;rounded=0;fontSize=24;exitX=1;exitY=0.5;exitDx=0;exitDy=0;entryX=0;entryY=0.5;entryDx=0;entryDy=0;" parent="x3TTFfxIbDM9HAaXYY1i-1" source="x3TTFfxIbDM9HAaXYY1i-7" target="x3TTFfxIbDM9HAaXYY1i-5" edge="1">
          <mxGeometry width="50" height="50" relative="1" as="geometry">
            <mxPoint x="408" y="677.9999999999999" as="sourcePoint" />
            <mxPoint x="498" y="747.9999999999999" as="targetPoint" />
          </mxGeometry>
        </mxCell>
        <mxCell id="x3TTFfxIbDM9HAaXYY1i-15" value="" style="endArrow=classic;html=1;rounded=0;fontSize=24;exitX=1;exitY=0.5;exitDx=0;exitDy=0;entryX=0;entryY=0.5;entryDx=0;entryDy=0;" parent="x3TTFfxIbDM9HAaXYY1i-1" source="x3TTFfxIbDM9HAaXYY1i-8" target="x3TTFfxIbDM9HAaXYY1i-5" edge="1">
          <mxGeometry width="50" height="50" relative="1" as="geometry">
            <mxPoint x="408" y="732.9999999999999" as="sourcePoint" />
            <mxPoint x="498" y="747.9999999999999" as="targetPoint" />
          </mxGeometry>
        </mxCell>
        <mxCell id="x3TTFfxIbDM9HAaXYY1i-16" value="&lt;span style=&quot;font-size: 24px&quot;&gt;AlarmRules&lt;/span&gt;" style="rounded=1;whiteSpace=wrap;html=1;fillColor=#0091cd;strokeColor=#b4a996;" parent="x3TTFfxIbDM9HAaXYY1i-1" vertex="1">
          <mxGeometry x="709" y="578" width="160" height="60" as="geometry" />
        </mxCell>
        <mxCell id="x3TTFfxIbDM9HAaXYY1i-17" value="" style="endArrow=classic;html=1;rounded=0;fontSize=24;exitX=0.5;exitY=1;exitDx=0;exitDy=0;entryX=0.5;entryY=0;entryDx=0;entryDy=0;dashed=1;" parent="x3TTFfxIbDM9HAaXYY1i-1" source="x3TTFfxIbDM9HAaXYY1i-16" target="x3TTFfxIbDM9HAaXYY1i-3" edge="1">
          <mxGeometry width="50" height="50" relative="1" as="geometry">
            <mxPoint x="534" y="768" as="sourcePoint" />
            <mxPoint x="584" y="718" as="targetPoint" />
          </mxGeometry>
        </mxCell>
        <mxCell id="x3TTFfxIbDM9HAaXYY1i-19" value="根据SN+RulerID映射&lt;br&gt;支持增量、全量查询" style="text;html=1;strokeColor=none;fillColor=none;align=center;verticalAlign=middle;whiteSpace=wrap;rounded=0;fontSize=12;" parent="x3TTFfxIbDM9HAaXYY1i-1" vertex="1">
          <mxGeometry x="773" y="653" width="160" height="30" as="geometry" />
        </mxCell>
        <mxCell id="x3TTFfxIbDM9HAaXYY1i-20" value="" style="endArrow=classic;html=1;rounded=0;fontSize=12;exitX=0.5;exitY=1;exitDx=0;exitDy=0;entryX=0.5;entryY=1;entryDx=0;entryDy=0;" parent="x3TTFfxIbDM9HAaXYY1i-1" source="x3TTFfxIbDM9HAaXYY1i-3" target="x3TTFfxIbDM9HAaXYY1i-5" edge="1">
          <mxGeometry width="50" height="50" relative="1" as="geometry">
            <mxPoint x="534" y="678" as="sourcePoint" />
            <mxPoint x="584" y="628" as="targetPoint" />
            <Array as="points">
              <mxPoint x="789" y="818" />
              <mxPoint x="533" y="818" />
            </Array>
          </mxGeometry>
        </mxCell>
        <mxCell id="x3TTFfxIbDM9HAaXYY1i-21" value="根据服务、微服务等聚合" style="text;html=1;strokeColor=none;fillColor=none;align=center;verticalAlign=middle;whiteSpace=wrap;rounded=0;fontSize=12;" parent="x3TTFfxIbDM9HAaXYY1i-1" vertex="1">
          <mxGeometry x="594" y="788" width="140" height="30" as="geometry" />
        </mxCell>
        <mxCell id="cG5XDOZKGiqvLTBRrJh_-1" value="&lt;font style=&quot;font-size: 24px&quot;&gt;Kafka&lt;/font&gt;" style="shape=step;perimeter=stepPerimeter;whiteSpace=wrap;html=1;fixedSize=1;strokeColor=#d7d7d8;" parent="x3TTFfxIbDM9HAaXYY1i-1" vertex="1">
          <mxGeometry x="933" y="788" width="130" height="40" as="geometry" />
        </mxCell>
        <mxCell id="cG5XDOZKGiqvLTBRrJh_-2" value="&lt;font style=&quot;font-size: 24px&quot;&gt;Service&lt;/font&gt;" style="rounded=1;whiteSpace=wrap;html=1;fillColor=#d7d7d8;strokeColor=#b4a996;" parent="x3TTFfxIbDM9HAaXYY1i-1" vertex="1">
          <mxGeometry x="696" y="888" width="118" height="40" as="geometry" />
        </mxCell>
        <mxCell id="cG5XDOZKGiqvLTBRrJh_-3" value="" style="endArrow=classic;html=1;rounded=0;fontSize=12;exitX=1;exitY=0.5;exitDx=0;exitDy=0;entryX=0;entryY=0.5;entryDx=0;entryDy=0;" parent="x3TTFfxIbDM9HAaXYY1i-1" source="x3TTFfxIbDM9HAaXYY1i-3" target="cG5XDOZKGiqvLTBRrJh_-1" edge="1">
          <mxGeometry width="50" height="50" relative="1" as="geometry">
            <mxPoint x="983" y="818" as="sourcePoint" />
            <mxPoint x="1033" y="768" as="targetPoint" />
          </mxGeometry>
        </mxCell>
        <mxCell id="cG5XDOZKGiqvLTBRrJh_-4" value="" style="endArrow=classic;html=1;rounded=0;fontSize=12;exitX=1;exitY=0.5;exitDx=0;exitDy=0;entryX=0;entryY=0.5;entryDx=0;entryDy=0;" parent="x3TTFfxIbDM9HAaXYY1i-1" source="cG5XDOZKGiqvLTBRrJh_-2" target="cG5XDOZKGiqvLTBRrJh_-1" edge="1">
          <mxGeometry width="50" height="50" relative="1" as="geometry">
            <mxPoint x="863" y="748" as="sourcePoint" />
            <mxPoint x="1013" y="808" as="targetPoint" />
          </mxGeometry>
        </mxCell>
        <mxCell id="cG5XDOZKGiqvLTBRrJh_-5" value="&lt;font style=&quot;font-size: 24px&quot;&gt;Service&lt;/font&gt;" style="rounded=1;whiteSpace=wrap;html=1;fillColor=#d7d7d8;strokeColor=#b4a996;" parent="x3TTFfxIbDM9HAaXYY1i-1" vertex="1">
          <mxGeometry x="696" y="838" width="118" height="40" as="geometry" />
        </mxCell>
        <mxCell id="cG5XDOZKGiqvLTBRrJh_-6" value="" style="endArrow=classic;html=1;rounded=0;fontSize=12;exitX=1;exitY=0.5;exitDx=0;exitDy=0;entryX=0;entryY=0.5;entryDx=0;entryDy=0;" parent="x3TTFfxIbDM9HAaXYY1i-1" source="cG5XDOZKGiqvLTBRrJh_-5" target="cG5XDOZKGiqvLTBRrJh_-1" edge="1">
          <mxGeometry width="50" height="50" relative="1" as="geometry">
            <mxPoint x="803" y="918" as="sourcePoint" />
            <mxPoint x="993" y="813" as="targetPoint" />
          </mxGeometry>
        </mxCell>
        <mxCell id="cG5XDOZKGiqvLTBRrJh_-7" value="&lt;font style=&quot;font-size: 24px&quot;&gt;Service&lt;/font&gt;" style="rounded=1;whiteSpace=wrap;html=1;fillColor=#d7d7d8;strokeColor=#b4a996;" parent="x3TTFfxIbDM9HAaXYY1i-1" vertex="1">
          <mxGeometry x="696" y="953" width="118" height="40" as="geometry" />
        </mxCell>
        <mxCell id="cG5XDOZKGiqvLTBRrJh_-8" value="&lt;span style=&quot;font-size: 24px&quot;&gt;... ...&lt;/span&gt;" style="text;html=1;strokeColor=none;fillColor=none;align=center;verticalAlign=middle;whiteSpace=wrap;rounded=0;fontSize=12;" parent="x3TTFfxIbDM9HAaXYY1i-1" vertex="1">
          <mxGeometry x="723" y="919" width="60" height="30" as="geometry" />
        </mxCell>
        <mxCell id="cG5XDOZKGiqvLTBRrJh_-9" value="" style="endArrow=classic;html=1;rounded=0;fontSize=12;exitX=1;exitY=0.5;exitDx=0;exitDy=0;entryX=0;entryY=0.5;entryDx=0;entryDy=0;" parent="x3TTFfxIbDM9HAaXYY1i-1" source="cG5XDOZKGiqvLTBRrJh_-7" target="cG5XDOZKGiqvLTBRrJh_-1" edge="1">
          <mxGeometry width="50" height="50" relative="1" as="geometry">
            <mxPoint x="803" y="918" as="sourcePoint" />
            <mxPoint x="993" y="813" as="targetPoint" />
          </mxGeometry>
        </mxCell>
        <mxCell id="cG5XDOZKGiqvLTBRrJh_-10" value="&lt;span style=&quot;font-size: 24px&quot;&gt;AlertSystem&lt;/span&gt;" style="rounded=1;whiteSpace=wrap;html=1;fillColor=#0091cd;strokeColor=#b4a996;" parent="x3TTFfxIbDM9HAaXYY1i-1" vertex="1">
          <mxGeometry x="1154" y="778" width="170" height="60" as="geometry" />
        </mxCell>
        <mxCell id="cG5XDOZKGiqvLTBRrJh_-11" value="" style="endArrow=classic;html=1;rounded=0;fontSize=12;entryX=0;entryY=0.5;entryDx=0;entryDy=0;" parent="x3TTFfxIbDM9HAaXYY1i-1" target="cG5XDOZKGiqvLTBRrJh_-10" edge="1">
          <mxGeometry width="50" height="50" relative="1" as="geometry">
            <mxPoint x="1063" y="808" as="sourcePoint" />
            <mxPoint x="954" y="818" as="targetPoint" />
          </mxGeometry>
        </mxCell>
        <mxCell id="cG5XDOZKGiqvLTBRrJh_-12" value="&lt;font style=&quot;font-size: 12px&quot;&gt;event&lt;/font&gt;" style="text;html=1;strokeColor=none;fillColor=none;align=center;verticalAlign=middle;whiteSpace=wrap;rounded=0;fontSize=14;" parent="x3TTFfxIbDM9HAaXYY1i-1" vertex="1">
          <mxGeometry x="1051" y="798" width="60" height="30" as="geometry" />
        </mxCell>
        <mxCell id="cG5XDOZKGiqvLTBRrJh_-13" value="&lt;span style=&quot;font-size: 24px&quot;&gt;PagerSystem&lt;/span&gt;" style="rounded=1;whiteSpace=wrap;html=1;fillColor=#0091cd;strokeColor=#b4a996;" parent="x3TTFfxIbDM9HAaXYY1i-1" vertex="1">
          <mxGeometry x="1447" y="778" width="170" height="60" as="geometry" />
        </mxCell>
        <mxCell id="cG5XDOZKGiqvLTBRrJh_-14" value="抑制、恢复" style="text;html=1;strokeColor=none;fillColor=none;align=center;verticalAlign=middle;whiteSpace=wrap;rounded=0;fontSize=12;" parent="x3TTFfxIbDM9HAaXYY1i-1" vertex="1">
          <mxGeometry x="1169" y="748" width="140" height="30" as="geometry" />
        </mxCell>
        <mxCell id="cG5XDOZKGiqvLTBRrJh_-15" value="短信、电话、Welink等" style="text;html=1;strokeColor=none;fillColor=none;align=center;verticalAlign=middle;whiteSpace=wrap;rounded=0;fontSize=12;" parent="x3TTFfxIbDM9HAaXYY1i-1" vertex="1">
          <mxGeometry x="1479" y="748" width="140" height="30" as="geometry" />
        </mxCell>
        <mxCell id="cG5XDOZKGiqvLTBRrJh_-17" value="" style="endArrow=classic;html=1;rounded=0;fontSize=12;exitX=1;exitY=0.5;exitDx=0;exitDy=0;entryX=0;entryY=0.5;entryDx=0;entryDy=0;" parent="x3TTFfxIbDM9HAaXYY1i-1" source="cG5XDOZKGiqvLTBRrJh_-10" target="cG5XDOZKGiqvLTBRrJh_-13" edge="1">
          <mxGeometry width="50" height="50" relative="1" as="geometry">
            <mxPoint x="1064" y="818" as="sourcePoint" />
            <mxPoint x="1164" y="818" as="targetPoint" />
          </mxGeometry>
        </mxCell>
        <mxCell id="cG5XDOZKGiqvLTBRrJh_-18" value="&lt;font style=&quot;font-size: 12px&quot;&gt;notify/alert&lt;/font&gt;" style="text;html=1;strokeColor=none;fillColor=none;align=center;verticalAlign=middle;whiteSpace=wrap;rounded=0;fontSize=14;" parent="x3TTFfxIbDM9HAaXYY1i-1" vertex="1">
          <mxGeometry x="1328" y="778" width="60" height="30" as="geometry" />
        </mxCell>
        <mxCell id="cG5XDOZKGiqvLTBRrJh_-19" value="&lt;span style=&quot;font-size: 24px&quot;&gt;ActionSystem&lt;/span&gt;" style="rounded=1;whiteSpace=wrap;html=1;fillColor=#0091cd;strokeColor=#b4a996;" parent="x3TTFfxIbDM9HAaXYY1i-1" vertex="1">
          <mxGeometry x="1154" y="904" width="170" height="60" as="geometry" />
        </mxCell>
        <mxCell id="cG5XDOZKGiqvLTBRrJh_-20" value="" style="endArrow=classic;html=1;rounded=0;fontSize=12;exitX=0.5;exitY=1;exitDx=0;exitDy=0;entryX=0.5;entryY=0;entryDx=0;entryDy=0;" parent="x3TTFfxIbDM9HAaXYY1i-1" source="cG5XDOZKGiqvLTBRrJh_-10" target="cG5XDOZKGiqvLTBRrJh_-19" edge="1">
          <mxGeometry width="50" height="50" relative="1" as="geometry">
            <mxPoint x="1334" y="818" as="sourcePoint" />
            <mxPoint x="1474" y="818" as="targetPoint" />
          </mxGeometry>
        </mxCell>
        <mxCell id="cG5XDOZKGiqvLTBRrJh_-21" value="&lt;font style=&quot;font-size: 12px&quot;&gt;actions&lt;/font&gt;" style="text;html=1;strokeColor=none;fillColor=none;align=center;verticalAlign=middle;whiteSpace=wrap;rounded=0;fontSize=14;" parent="x3TTFfxIbDM9HAaXYY1i-1" vertex="1">
          <mxGeometry x="1234" y="837" width="60" height="30" as="geometry" />
        </mxCell>
        <mxCell id="cG5XDOZKGiqvLTBRrJh_-22" value="&lt;div&gt;&lt;b&gt;&lt;font style=&quot;font-size: 18px&quot;&gt;DFX&lt;/font&gt;&lt;/b&gt;&lt;/div&gt;&lt;div&gt;1. 资源不足，在线水平扩容。&lt;/div&gt;&lt;div&gt;2. 机器、进程重启会引发的服务波动。&lt;/div&gt;&lt;div&gt;3. QoS 负载压力过大时，保证核心、重要告警可以发送。&lt;/div&gt;&lt;div&gt;4. 提供类似trace机制，方便问题排查。&lt;/div&gt;" style="text;html=1;strokeColor=none;fillColor=none;align=left;verticalAlign=middle;whiteSpace=wrap;rounded=0;fontSize=12;" parent="x3TTFfxIbDM9HAaXYY1i-1" vertex="1">
          <mxGeometry x="1200" y="90" width="390" height="90" as="geometry" />
        </mxCell>
        <mxCell id="cG5XDOZKGiqvLTBRrJh_-23" value="&lt;span style=&quot;font-size: 24px&quot;&gt;DataBrain&lt;br&gt;&lt;/span&gt;&lt;span style=&quot;font-size: 9px&quot;&gt;Knowledge Graph&lt;/span&gt;&lt;br style=&quot;font-size: 9px&quot;&gt;&lt;span style=&quot;font-size: 9px&quot;&gt;Fault Tree Analysis&lt;/span&gt;&lt;br style=&quot;font-size: 9px&quot;&gt;&lt;span style=&quot;font-size: 9px&quot;&gt;Business Rules Engine&lt;/span&gt;" style="rounded=1;whiteSpace=wrap;html=1;fillColor=#0091cd;strokeColor=#b4a996;" parent="x3TTFfxIbDM9HAaXYY1i-1" vertex="1">
          <mxGeometry x="1144" y="618" width="190" height="90" as="geometry" />
        </mxCell>
        <mxCell id="cG5XDOZKGiqvLTBRrJh_-24" value="风险拦截、频率控制、批量执行等" style="text;html=1;strokeColor=none;fillColor=none;align=center;verticalAlign=middle;whiteSpace=wrap;rounded=0;fontSize=12;" parent="x3TTFfxIbDM9HAaXYY1i-1" vertex="1">
          <mxGeometry x="1134" y="868" width="210" height="44" as="geometry" />
        </mxCell>
        <mxCell id="_c-pI2eJtfhgEtlDj1tY-16" value="" style="endArrow=classic;html=1;rounded=0;fontSize=12;entryX=0.5;entryY=1;entryDx=0;entryDy=0;startArrow=classic;startFill=1;" parent="x3TTFfxIbDM9HAaXYY1i-1" source="cG5XDOZKGiqvLTBRrJh_-10" target="cG5XDOZKGiqvLTBRrJh_-23" edge="1">
          <mxGeometry width="50" height="50" relative="1" as="geometry">
            <mxPoint x="1064" y="818" as="sourcePoint" />
            <mxPoint x="1164" y="818" as="targetPoint" />
          </mxGeometry>
        </mxCell>
        <mxCell id="_c-pI2eJtfhgEtlDj1tY-27" value="&lt;div&gt;&lt;span style=&quot;font-size: 18px&quot;&gt;&lt;b&gt;约束&lt;/b&gt;&lt;/span&gt;&lt;/div&gt;&lt;div&gt;1.&amp;nbsp;&lt;span style=&quot;text-align: center&quot;&gt;服务:微服务:组件:主机，四级结构&lt;/span&gt;。&lt;/div&gt;&lt;div&gt;&lt;br&gt;&lt;/div&gt;" style="text;html=1;strokeColor=none;fillColor=none;align=left;verticalAlign=middle;whiteSpace=wrap;rounded=0;fontSize=12;" parent="x3TTFfxIbDM9HAaXYY1i-1" vertex="1">
          <mxGeometry x="1200" y="20" width="380" height="70" as="geometry" />
        </mxCell>
        <mxCell id="B6HSVe5MtlVD5J2qDVjw-0" value="&lt;span style=&quot;font-size: 24px&quot;&gt;DevOpsPlatform&lt;/span&gt;" style="rounded=1;whiteSpace=wrap;html=1;fillColor=#c4dff6;strokeColor=#b4a996;" parent="x3TTFfxIbDM9HAaXYY1i-1" vertex="1">
          <mxGeometry x="1234" y="1048" width="200" height="60" as="geometry" />
        </mxCell>
        <mxCell id="B6HSVe5MtlVD5J2qDVjw-1" value="" style="endArrow=classic;html=1;rounded=0;fontSize=12;exitX=0.5;exitY=0;exitDx=0;exitDy=0;entryX=0.5;entryY=1;entryDx=0;entryDy=0;startArrow=none;startFill=0;" parent="x3TTFfxIbDM9HAaXYY1i-1" source="B6HSVe5MtlVD5J2qDVjw-0" target="cG5XDOZKGiqvLTBRrJh_-19" edge="1">
          <mxGeometry width="50" height="50" relative="1" as="geometry">
            <mxPoint x="1333.9999999999995" y="804" as="sourcePoint" />
            <mxPoint x="1473.9999999999995" y="804" as="targetPoint" />
          </mxGeometry>
        </mxCell>
        <mxCell id="B6HSVe5MtlVD5J2qDVjw-2" value="&lt;font style=&quot;font-size: 12px&quot;&gt;query&lt;/font&gt;" style="text;html=1;strokeColor=none;fillColor=none;align=center;verticalAlign=middle;whiteSpace=wrap;rounded=0;fontSize=14;" parent="x3TTFfxIbDM9HAaXYY1i-1" vertex="1">
          <mxGeometry x="1300" y="1006" width="60" height="30" as="geometry" />
        </mxCell>
        <mxCell id="B6HSVe5MtlVD5J2qDVjw-4" value="" style="endArrow=classic;html=1;rounded=0;fontSize=12;exitX=0;exitY=0.5;exitDx=0;exitDy=0;entryX=0;entryY=0.5;entryDx=0;entryDy=0;edgeStyle=orthogonalEdgeStyle;" parent="x3TTFfxIbDM9HAaXYY1i-1" source="cG5XDOZKGiqvLTBRrJh_-23" target="cG5XDOZKGiqvLTBRrJh_-19" edge="1">
          <mxGeometry width="50" height="50" relative="1" as="geometry">
            <mxPoint x="1249" y="1078" as="sourcePoint" />
            <mxPoint x="1249" y="1020" as="targetPoint" />
            <Array as="points">
              <mxPoint x="1126" y="663" />
              <mxPoint x="1126" y="934" />
            </Array>
          </mxGeometry>
        </mxCell>
        <mxCell id="B6HSVe5MtlVD5J2qDVjw-5" value="&lt;div&gt;&lt;span style=&quot;font-size: 18px&quot;&gt;&lt;b&gt;ActionSystem&lt;/b&gt;&lt;/span&gt;&lt;/div&gt;&lt;div&gt;&lt;/div&gt;1. 维护了两类脚本，需要经过评审、试运行，并做版本化维护。&lt;br&gt;&amp;nbsp; &amp;nbsp; &amp;nbsp;A) 执行，用于故障恢复、日常运维、批量执行等；&lt;br&gt;&amp;nbsp; &amp;nbsp; &amp;nbsp;B) 查询，收集现场信息，不方便指标化或者耗时久；&lt;br&gt;2.&amp;nbsp;&lt;span&gt;已知明确场景可以通过执行脚本自动恢复。&lt;br&gt;3. 可以通过Agent提供的原子接口进行任务编排，也会从周边系统收集所需信息。&lt;br&gt;4. 防范策略，防止单机压力过大，对任务进行策略限流，等防范措施。&lt;br&gt;&lt;font style=&quot;font-size: 18px&quot;&gt;&lt;b&gt;DFX&lt;/b&gt;&lt;/font&gt;&lt;br&gt;1. 任务不可回退，执行主备切换之后可能因为事务不一致无法回退。&lt;br&gt;&lt;/span&gt;" style="text;html=1;strokeColor=none;fillColor=none;align=left;verticalAlign=middle;whiteSpace=wrap;rounded=0;fontSize=12;" parent="x3TTFfxIbDM9HAaXYY1i-1" vertex="1">
          <mxGeometry x="22" y="20" width="440" height="170" as="geometry" />
        </mxCell>
        <mxCell id="B6HSVe5MtlVD5J2qDVjw-6" value="&lt;span style=&quot;font-size: 24px&quot;&gt;DevOpsPlatform&lt;/span&gt;" style="rounded=1;whiteSpace=wrap;html=1;fillColor=#c4dff6;strokeColor=#b4a996;" parent="x3TTFfxIbDM9HAaXYY1i-1" vertex="1">
          <mxGeometry x="689" y="450" width="200" height="60" as="geometry" />
        </mxCell>
        <mxCell id="B6HSVe5MtlVD5J2qDVjw-7" value="" style="endArrow=classic;html=1;rounded=0;exitX=0.5;exitY=1;exitDx=0;exitDy=0;entryX=0.5;entryY=0;entryDx=0;entryDy=0;" parent="x3TTFfxIbDM9HAaXYY1i-1" source="B6HSVe5MtlVD5J2qDVjw-6" target="x3TTFfxIbDM9HAaXYY1i-16" edge="1">
          <mxGeometry width="50" height="50" relative="1" as="geometry">
            <mxPoint x="1034" y="568" as="sourcePoint" />
            <mxPoint x="1084" y="518" as="targetPoint" />
          </mxGeometry>
        </mxCell>
        <mxCell id="B6HSVe5MtlVD5J2qDVjw-8" value="&lt;font style=&quot;font-size: 12px&quot;&gt;config&lt;/font&gt;" style="text;html=1;strokeColor=none;fillColor=none;align=center;verticalAlign=middle;whiteSpace=wrap;rounded=0;fontSize=14;" parent="x3TTFfxIbDM9HAaXYY1i-1" vertex="1">
          <mxGeometry x="783" y="510" width="60" height="30" as="geometry" />
        </mxCell>
        <mxCell id="B6HSVe5MtlVD5J2qDVjw-9" value="" style="endArrow=classic;html=1;rounded=0;fontSize=12;exitX=1;exitY=0.5;exitDx=0;exitDy=0;entryX=0.5;entryY=1;entryDx=0;entryDy=0;edgeStyle=orthogonalEdgeStyle;" parent="x3TTFfxIbDM9HAaXYY1i-1" source="cG5XDOZKGiqvLTBRrJh_-19" target="cG5XDOZKGiqvLTBRrJh_-13" edge="1">
          <mxGeometry width="50" height="50" relative="1" as="geometry">
            <mxPoint x="1334" y="818.0000000000002" as="sourcePoint" />
            <mxPoint x="1474" y="818.0000000000002" as="targetPoint" />
          </mxGeometry>
        </mxCell>
        <mxCell id="B6HSVe5MtlVD5J2qDVjw-10" value="&lt;font style=&quot;font-size: 12px&quot;&gt;notify&lt;/font&gt;" style="text;html=1;strokeColor=none;fillColor=none;align=center;verticalAlign=middle;whiteSpace=wrap;rounded=0;fontSize=14;" parent="x3TTFfxIbDM9HAaXYY1i-1" vertex="1">
          <mxGeometry x="1322" y="928" width="50" height="30" as="geometry" />
        </mxCell>
        <mxCell id="l99rI_Dk59EjYmHowYnN-3" value="&lt;font style=&quot;font-size: 12px&quot;&gt;decision&lt;/font&gt;" style="text;html=1;strokeColor=none;fillColor=none;align=center;verticalAlign=middle;whiteSpace=wrap;rounded=0;fontSize=14;" parent="x3TTFfxIbDM9HAaXYY1i-1" vertex="1">
          <mxGeometry x="1126" y="713" width="60" height="30" as="geometry" />
        </mxCell>
        <mxCell id="l99rI_Dk59EjYmHowYnN-4" value="&lt;font style=&quot;font-size: 24px&quot;&gt;AgentServer&lt;/font&gt;" style="rounded=1;whiteSpace=wrap;html=1;fillColor=#8ec06c;strokeColor=#b4a996;" parent="x3TTFfxIbDM9HAaXYY1i-1" vertex="1">
          <mxGeometry x="50" y="700.5" width="170" height="75" as="geometry" />
        </mxCell>
        <mxCell id="l99rI_Dk59EjYmHowYnN-5" value="" style="endArrow=classic;html=1;rounded=0;fontSize=24;exitX=0;exitY=0.5;exitDx=0;exitDy=0;entryX=1;entryY=0.5;entryDx=0;entryDy=0;startArrow=classic;startFill=1;" parent="x3TTFfxIbDM9HAaXYY1i-1" source="x3TTFfxIbDM9HAaXYY1i-7" target="l99rI_Dk59EjYmHowYnN-4" edge="1">
          <mxGeometry width="50" height="50" relative="1" as="geometry">
            <mxPoint x="408" y="808" as="sourcePoint" />
            <mxPoint x="498" y="748" as="targetPoint" />
          </mxGeometry>
        </mxCell>
        <mxCell id="l99rI_Dk59EjYmHowYnN-6" value="" style="endArrow=classic;html=1;rounded=0;fontSize=24;exitX=0;exitY=0.5;exitDx=0;exitDy=0;entryX=1;entryY=0.5;entryDx=0;entryDy=0;startArrow=classic;startFill=1;" parent="x3TTFfxIbDM9HAaXYY1i-1" source="x3TTFfxIbDM9HAaXYY1i-8" target="l99rI_Dk59EjYmHowYnN-4" edge="1">
          <mxGeometry width="50" height="50" relative="1" as="geometry">
            <mxPoint x="318" y="733" as="sourcePoint" />
            <mxPoint x="184" y="748" as="targetPoint" />
          </mxGeometry>
        </mxCell>
        <mxCell id="l99rI_Dk59EjYmHowYnN-7" value="" style="endArrow=classic;html=1;rounded=0;fontSize=24;exitX=0;exitY=0.5;exitDx=0;exitDy=0;entryX=1;entryY=0.5;entryDx=0;entryDy=0;startArrow=classic;startFill=1;" parent="x3TTFfxIbDM9HAaXYY1i-1" source="x3TTFfxIbDM9HAaXYY1i-4" target="l99rI_Dk59EjYmHowYnN-4" edge="1">
          <mxGeometry width="50" height="50" relative="1" as="geometry">
            <mxPoint x="318" y="808" as="sourcePoint" />
            <mxPoint x="184" y="748" as="targetPoint" />
          </mxGeometry>
        </mxCell>
        <mxCell id="l99rI_Dk59EjYmHowYnN-10" value="" style="endArrow=classic;startArrow=classic;html=1;rounded=0;fontSize=9;exitX=0.5;exitY=1;exitDx=0;exitDy=0;entryX=0.5;entryY=1;entryDx=0;entryDy=0;strokeWidth=2;" parent="x3TTFfxIbDM9HAaXYY1i-1" source="l99rI_Dk59EjYmHowYnN-4" target="cG5XDOZKGiqvLTBRrJh_-19" edge="1">
          <mxGeometry width="50" height="50" relative="1" as="geometry">
            <mxPoint x="1103" y="978" as="sourcePoint" />
            <mxPoint x="1153" y="928" as="targetPoint" />
            <Array as="points">
              <mxPoint x="135" y="1028" />
              <mxPoint x="1183" y="1028" />
            </Array>
          </mxGeometry>
        </mxCell>
        <mxCell id="l99rI_Dk59EjYmHowYnN-12" value="&lt;font style=&quot;font-size: 12px&quot;&gt;data&lt;/font&gt;" style="text;html=1;strokeColor=none;fillColor=none;align=center;verticalAlign=middle;whiteSpace=wrap;rounded=0;fontSize=14;" parent="x3TTFfxIbDM9HAaXYY1i-1" vertex="1">
          <mxGeometry x="398" y="728" width="50" height="20" as="geometry" />
        </mxCell>
        <mxCell id="l99rI_Dk59EjYmHowYnN-13" value="&lt;font style=&quot;font-size: 12px&quot;&gt;cmd&lt;/font&gt;" style="text;html=1;strokeColor=none;fillColor=none;align=center;verticalAlign=middle;whiteSpace=wrap;rounded=0;fontSize=14;" parent="x3TTFfxIbDM9HAaXYY1i-1" vertex="1">
          <mxGeometry x="233" y="728" width="50" height="20" as="geometry" />
        </mxCell>
        <mxCell id="l99rI_Dk59EjYmHowYnN-14" value="&lt;font style=&quot;font-size: 12px&quot;&gt;cmd&lt;/font&gt;" style="text;html=1;strokeColor=none;fillColor=none;align=center;verticalAlign=middle;whiteSpace=wrap;rounded=0;fontSize=14;" parent="x3TTFfxIbDM9HAaXYY1i-1" vertex="1">
          <mxGeometry x="423" y="1008" width="50" height="20" as="geometry" />
        </mxCell>
        <mxCell id="l99rI_Dk59EjYmHowYnN-15" value="&lt;font style=&quot;font-size: 12px&quot;&gt;event&lt;br&gt;&lt;/font&gt;" style="text;html=1;strokeColor=none;fillColor=none;align=center;verticalAlign=middle;whiteSpace=wrap;rounded=0;fontSize=14;" parent="x3TTFfxIbDM9HAaXYY1i-1" vertex="1">
          <mxGeometry x="889" y="738" width="60" height="30" as="geometry" />
        </mxCell>
        <mxCell id="l99rI_Dk59EjYmHowYnN-16" value="&lt;font style=&quot;font-size: 12px&quot;&gt;alarm&lt;br&gt;&lt;/font&gt;" style="text;html=1;strokeColor=none;fillColor=none;align=center;verticalAlign=middle;whiteSpace=wrap;rounded=0;fontSize=14;" parent="x3TTFfxIbDM9HAaXYY1i-1" vertex="1">
          <mxGeometry x="853" y="904" width="60" height="30" as="geometry" />
        </mxCell>
        <mxCell id="l99rI_Dk59EjYmHowYnN-17" value="User" style="shape=umlActor;verticalLabelPosition=bottom;verticalAlign=top;html=1;outlineConnect=0;fontSize=9;" parent="x3TTFfxIbDM9HAaXYY1i-1" vertex="1">
          <mxGeometry x="1533" y="1078" width="30" height="60" as="geometry" />
        </mxCell>
        <mxCell id="l99rI_Dk59EjYmHowYnN-18" value="" style="endArrow=classic;html=1;rounded=0;fontSize=12;exitX=0;exitY=0.3333333333333333;exitDx=0;exitDy=0;entryX=1;entryY=0.5;entryDx=0;entryDy=0;exitPerimeter=0;" parent="x3TTFfxIbDM9HAaXYY1i-1" source="l99rI_Dk59EjYmHowYnN-17" target="B6HSVe5MtlVD5J2qDVjw-0" edge="1">
          <mxGeometry width="50" height="50" relative="1" as="geometry">
            <mxPoint x="1344" y="1058" as="sourcePoint" />
            <mxPoint x="1249" y="974" as="targetPoint" />
          </mxGeometry>
        </mxCell>
        <mxCell id="l99rI_Dk59EjYmHowYnN-20" value="&lt;font style=&quot;font-size: 12px&quot;&gt;alert&lt;/font&gt;" style="text;html=1;strokeColor=none;fillColor=none;align=center;verticalAlign=middle;whiteSpace=wrap;rounded=0;fontSize=14;" parent="x3TTFfxIbDM9HAaXYY1i-1" vertex="1">
          <mxGeometry x="1454" y="1058" width="60" height="30" as="geometry" />
        </mxCell>
        <mxCell id="Wytut4BL0KCFtaaoNlyn-0" value="&lt;span style=&quot;font-size: 24px&quot;&gt;MonitorSystem&lt;/span&gt;" style="rounded=1;whiteSpace=wrap;html=1;fillColor=#0091cd;strokeColor=#b4a996;" parent="x3TTFfxIbDM9HAaXYY1i-1" vertex="1">
          <mxGeometry x="438" y="579" width="190" height="60" as="geometry" />
        </mxCell>
        <mxCell id="Wytut4BL0KCFtaaoNlyn-1" value="" style="endArrow=classic;html=1;rounded=0;fontSize=12;exitX=0.5;exitY=0;exitDx=0;exitDy=0;entryX=0.5;entryY=1;entryDx=0;entryDy=0;" parent="x3TTFfxIbDM9HAaXYY1i-1" source="x3TTFfxIbDM9HAaXYY1i-5" target="Wytut4BL0KCFtaaoNlyn-0" edge="1">
          <mxGeometry width="50" height="50" relative="1" as="geometry">
            <mxPoint x="1073.0000000000002" y="818" as="sourcePoint" />
            <mxPoint x="533" y="659" as="targetPoint" />
          </mxGeometry>
        </mxCell>
        <mxCell id="Wytut4BL0KCFtaaoNlyn-2" value="&lt;font style=&quot;font-size: 12px&quot;&gt;metric/log/trace&lt;br&gt;&lt;/font&gt;" style="text;html=1;strokeColor=none;fillColor=none;align=center;verticalAlign=middle;whiteSpace=wrap;rounded=0;fontSize=14;" parent="x3TTFfxIbDM9HAaXYY1i-1" vertex="1">
          <mxGeometry x="536" y="669" width="86" height="30" as="geometry" />
        </mxCell>
        <mxCell id="Wytut4BL0KCFtaaoNlyn-3" value="" style="endArrow=classic;html=1;rounded=0;fontSize=12;exitX=0.5;exitY=0;exitDx=0;exitDy=0;entryX=0.5;entryY=0;entryDx=0;entryDy=0;edgeStyle=orthogonalEdgeStyle;" parent="x3TTFfxIbDM9HAaXYY1i-1" source="cG5XDOZKGiqvLTBRrJh_-23" target="Wytut4BL0KCFtaaoNlyn-0" edge="1">
          <mxGeometry width="50" height="50" relative="1" as="geometry">
            <mxPoint x="1154.0000000000005" y="673" as="sourcePoint" />
            <mxPoint x="1164.0000000000005" y="944" as="targetPoint" />
            <Array as="points">
              <mxPoint x="1239" y="539" />
              <mxPoint x="533" y="539" />
            </Array>
          </mxGeometry>
        </mxCell>
        <mxCell id="Wytut4BL0KCFtaaoNlyn-4" value="&lt;font style=&quot;font-size: 12px&quot;&gt;query&lt;/font&gt;" style="text;html=1;strokeColor=none;fillColor=none;align=center;verticalAlign=middle;whiteSpace=wrap;rounded=0;fontSize=14;" parent="x3TTFfxIbDM9HAaXYY1i-1" vertex="1">
          <mxGeometry x="1186" y="569" width="60" height="30" as="geometry" />
        </mxCell>
        <mxCell id="Wytut4BL0KCFtaaoNlyn-5" value="" style="endArrow=classic;html=1;rounded=0;fontSize=12;edgeStyle=orthogonalEdgeStyle;exitX=0;exitY=0.5;exitDx=0;exitDy=0;entryX=1;entryY=0.5;entryDx=0;entryDy=0;" parent="x3TTFfxIbDM9HAaXYY1i-1" source="cG5XDOZKGiqvLTBRrJh_-23" target="cG5XDOZKGiqvLTBRrJh_-7" edge="1">
          <mxGeometry width="50" height="50" relative="1" as="geometry">
            <mxPoint x="1154" y="673" as="sourcePoint" />
            <mxPoint x="976" y="939" as="targetPoint" />
            <Array as="points">
              <mxPoint x="1106" y="663" />
              <mxPoint x="1106" y="973" />
            </Array>
          </mxGeometry>
        </mxCell>
        <mxCell id="Wytut4BL0KCFtaaoNlyn-6" value="&lt;font style=&quot;font-size: 12px&quot;&gt;query&lt;/font&gt;" style="text;html=1;strokeColor=none;fillColor=none;align=center;verticalAlign=middle;whiteSpace=wrap;rounded=0;fontSize=14;" parent="x3TTFfxIbDM9HAaXYY1i-1" vertex="1">
          <mxGeometry x="1051" y="658" width="60" height="30" as="geometry" />
        </mxCell>
        <mxCell id="tOWL-PJdRZEVZjwcpIhW-0" value="&lt;font style=&quot;font-size: 18px;&quot;&gt;监控系统入口&lt;/font&gt;" style="rounded=1;whiteSpace=wrap;html=1;fillColor=#c4dff6;strokeColor=#b4a996;" vertex="1" parent="x3TTFfxIbDM9HAaXYY1i-1">
          <mxGeometry x="40" y="350" width="180" height="49" as="geometry" />
        </mxCell>
        <mxCell id="tOWL-PJdRZEVZjwcpIhW-1" value="&lt;font style=&quot;font-size: 18px;&quot;&gt;三方服务&lt;/font&gt;" style="rounded=1;whiteSpace=wrap;html=1;fillColor=#d7d7d8;strokeColor=#b4a996;" vertex="1" parent="x3TTFfxIbDM9HAaXYY1i-1">
          <mxGeometry x="40" y="470" width="180" height="50" as="geometry" />
        </mxCell>
        <mxCell id="tOWL-PJdRZEVZjwcpIhW-2" value="&lt;font style=&quot;&quot;&gt;&lt;span style=&quot;font-size: 18px;&quot;&gt;Agent系统&lt;/span&gt;&lt;br&gt;&lt;font style=&quot;font-size: 12px;&quot;&gt;这里仅标识监控、事件相关功能&lt;/font&gt;&lt;br&gt;&lt;/font&gt;" style="rounded=1;whiteSpace=wrap;html=1;fillColor=#8ec06c;strokeColor=#b4a996;" vertex="1" parent="x3TTFfxIbDM9HAaXYY1i-1">
          <mxGeometry x="40" y="529" width="180" height="50" as="geometry" />
        </mxCell>
        <mxCell id="ysLNYio6HttCxvqTg_Mh-0" value="&lt;font style=&quot;font-size: 18px;&quot;&gt;监控系统后台服务&lt;/font&gt;" style="rounded=1;whiteSpace=wrap;html=1;fillColor=#0091cd;strokeColor=#b4a996;" vertex="1" parent="x3TTFfxIbDM9HAaXYY1i-1">
          <mxGeometry x="40" y="410" width="180" height="50" as="geometry" />
        </mxCell>
        <mxCell id="ysLNYio6HttCxvqTg_Mh-1" value="&lt;font style=&quot;font-size: 18px;&quot;&gt;基础服务&lt;/font&gt;" style="rounded=1;whiteSpace=wrap;html=1;strokeColor=#d7d7d8;" vertex="1" parent="x3TTFfxIbDM9HAaXYY1i-1">
          <mxGeometry x="40" y="597" width="180" height="51" as="geometry" />
        </mxCell>
      </root>
    </mxGraphModel>
  </diagram>
  <diagram id="XGpkQ0UZ56BTJW75c6YX" name="故障时间">
    <mxGraphModel dx="1434" dy="708" grid="1" gridSize="10" guides="1" tooltips="1" connect="1" arrows="1" fold="1" page="1" pageScale="1" pageWidth="827" pageHeight="1169" math="0" shadow="0">
      <root>
        <mxCell id="0" />
        <mxCell id="1" parent="0" />
        <mxCell id="NuyFOrFrpUnFjrTJcSm_-1" value="" style="endArrow=none;html=1;rounded=0;strokeWidth=1;jumpSize=3;" parent="1" edge="1">
          <mxGeometry width="50" height="50" relative="1" as="geometry">
            <mxPoint x="67" y="159" as="sourcePoint" />
            <mxPoint x="67" y="149" as="targetPoint" />
          </mxGeometry>
        </mxCell>
        <mxCell id="NuyFOrFrpUnFjrTJcSm_-2" value="" style="endArrow=none;html=1;rounded=0;strokeWidth=1;jumpSize=3;" parent="1" edge="1">
          <mxGeometry width="50" height="50" relative="1" as="geometry">
            <mxPoint x="147" y="159" as="sourcePoint" />
            <mxPoint x="147" y="149" as="targetPoint" />
          </mxGeometry>
        </mxCell>
        <mxCell id="NuyFOrFrpUnFjrTJcSm_-3" value="" style="endArrow=none;html=1;rounded=0;strokeWidth=1;jumpSize=3;" parent="1" edge="1">
          <mxGeometry width="50" height="50" relative="1" as="geometry">
            <mxPoint x="227" y="159" as="sourcePoint" />
            <mxPoint x="227" y="149" as="targetPoint" />
          </mxGeometry>
        </mxCell>
        <mxCell id="NuyFOrFrpUnFjrTJcSm_-4" value="" style="endArrow=classic;html=1;rounded=0;strokeWidth=2;" parent="1" edge="1">
          <mxGeometry width="50" height="50" relative="1" as="geometry">
            <mxPoint x="27" y="149" as="sourcePoint" />
            <mxPoint x="437" y="149" as="targetPoint" />
          </mxGeometry>
        </mxCell>
        <mxCell id="NuyFOrFrpUnFjrTJcSm_-5" value="" style="endArrow=none;html=1;rounded=0;strokeWidth=1;jumpSize=3;" parent="1" edge="1">
          <mxGeometry width="50" height="50" relative="1" as="geometry">
            <mxPoint x="307" y="207" as="sourcePoint" />
            <mxPoint x="307" y="149" as="targetPoint" />
          </mxGeometry>
        </mxCell>
        <mxCell id="NuyFOrFrpUnFjrTJcSm_-6" value="" style="endArrow=none;html=1;rounded=0;strokeWidth=1;jumpSize=3;fontStyle=1" parent="1" edge="1">
          <mxGeometry width="50" height="50" relative="1" as="geometry">
            <mxPoint x="387" y="227" as="sourcePoint" />
            <mxPoint x="387" y="149" as="targetPoint" />
          </mxGeometry>
        </mxCell>
        <mxCell id="NuyFOrFrpUnFjrTJcSm_-7" value="time" style="text;html=1;strokeColor=none;fillColor=none;align=center;verticalAlign=middle;whiteSpace=wrap;rounded=0;" parent="1" vertex="1">
          <mxGeometry x="402" y="159" width="55" height="30" as="geometry" />
        </mxCell>
        <mxCell id="NuyFOrFrpUnFjrTJcSm_-8" value="" style="endArrow=classicThin;html=1;rounded=0;endFill=1;strokeWidth=2;" parent="1" edge="1">
          <mxGeometry width="50" height="50" relative="1" as="geometry">
            <mxPoint x="47" y="149" as="sourcePoint" />
            <mxPoint x="47" y="109" as="targetPoint" />
          </mxGeometry>
        </mxCell>
        <mxCell id="NuyFOrFrpUnFjrTJcSm_-9" value="业务恢复时间&lt;br&gt;(人工处理)" style="text;html=1;strokeColor=none;fillColor=none;align=center;verticalAlign=middle;whiteSpace=wrap;rounded=0;" parent="1" vertex="1">
          <mxGeometry x="448" y="129" width="85" height="30" as="geometry" />
        </mxCell>
        <mxCell id="NuyFOrFrpUnFjrTJcSm_-11" value="事件触发" style="text;html=1;strokeColor=none;fillColor=none;align=center;verticalAlign=middle;whiteSpace=wrap;rounded=0;" parent="1" vertex="1">
          <mxGeometry x="18" y="87" width="58" height="30" as="geometry" />
        </mxCell>
        <mxCell id="NuyFOrFrpUnFjrTJcSm_-12" value="" style="endArrow=classicThin;html=1;rounded=0;endFill=1;strokeWidth=1;" parent="1" edge="1">
          <mxGeometry width="50" height="50" relative="1" as="geometry">
            <mxPoint x="57" y="149" as="sourcePoint" />
            <mxPoint x="57" y="129" as="targetPoint" />
          </mxGeometry>
        </mxCell>
        <mxCell id="NuyFOrFrpUnFjrTJcSm_-13" value="" style="endArrow=classicThin;html=1;rounded=0;endFill=1;strokeWidth=1;" parent="1" edge="1">
          <mxGeometry width="50" height="50" relative="1" as="geometry">
            <mxPoint x="87" y="149" as="sourcePoint" />
            <mxPoint x="87" y="129" as="targetPoint" />
          </mxGeometry>
        </mxCell>
        <mxCell id="NuyFOrFrpUnFjrTJcSm_-14" value="" style="endArrow=classicThin;html=1;rounded=0;endFill=1;strokeWidth=1;" parent="1" edge="1">
          <mxGeometry width="50" height="50" relative="1" as="geometry">
            <mxPoint x="127" y="149" as="sourcePoint" />
            <mxPoint x="127" y="129" as="targetPoint" />
          </mxGeometry>
        </mxCell>
        <mxCell id="NuyFOrFrpUnFjrTJcSm_-15" value="" style="endArrow=classicThin;html=1;rounded=0;endFill=1;strokeWidth=2;" parent="1" edge="1">
          <mxGeometry width="50" height="50" relative="1" as="geometry">
            <mxPoint x="137" y="149" as="sourcePoint" />
            <mxPoint x="137" y="109" as="targetPoint" />
          </mxGeometry>
        </mxCell>
        <mxCell id="NuyFOrFrpUnFjrTJcSm_-16" value="N轮抑制" style="text;html=1;strokeColor=none;fillColor=none;align=center;verticalAlign=middle;whiteSpace=wrap;rounded=0;" parent="1" vertex="1">
          <mxGeometry x="67" y="107" width="58" height="30" as="geometry" />
        </mxCell>
        <mxCell id="NuyFOrFrpUnFjrTJcSm_-17" value="告警事件" style="text;html=1;strokeColor=none;fillColor=none;align=center;verticalAlign=middle;whiteSpace=wrap;rounded=0;" parent="1" vertex="1">
          <mxGeometry x="107" y="87" width="58" height="30" as="geometry" />
        </mxCell>
        <mxCell id="NuyFOrFrpUnFjrTJcSm_-18" value="告警通知" style="text;html=1;strokeColor=none;fillColor=none;align=center;verticalAlign=middle;whiteSpace=wrap;rounded=0;" parent="1" vertex="1">
          <mxGeometry x="179" y="87" width="58" height="30" as="geometry" />
        </mxCell>
        <mxCell id="NuyFOrFrpUnFjrTJcSm_-19" value="" style="endArrow=classicThin;html=1;rounded=0;endFill=1;strokeWidth=2;" parent="1" edge="1">
          <mxGeometry width="50" height="50" relative="1" as="geometry">
            <mxPoint x="206.8299999999997" y="149" as="sourcePoint" />
            <mxPoint x="206.8299999999997" y="109" as="targetPoint" />
          </mxGeometry>
        </mxCell>
        <mxCell id="NuyFOrFrpUnFjrTJcSm_-20" value="队列等待" style="text;html=1;strokeColor=none;fillColor=none;align=center;verticalAlign=middle;whiteSpace=wrap;rounded=0;" parent="1" vertex="1">
          <mxGeometry x="143" y="117" width="58" height="30" as="geometry" />
        </mxCell>
        <mxCell id="NuyFOrFrpUnFjrTJcSm_-21" value="" style="endArrow=classicThin;html=1;rounded=0;endFill=1;strokeWidth=2;" parent="1" edge="1">
          <mxGeometry width="50" height="50" relative="1" as="geometry">
            <mxPoint x="307" y="149" as="sourcePoint" />
            <mxPoint x="307" y="109" as="targetPoint" />
          </mxGeometry>
        </mxCell>
        <mxCell id="NuyFOrFrpUnFjrTJcSm_-22" value="问题定位" style="text;html=1;strokeColor=none;fillColor=none;align=center;verticalAlign=middle;whiteSpace=wrap;rounded=0;" parent="1" vertex="1">
          <mxGeometry x="227" y="117" width="58" height="30" as="geometry" />
        </mxCell>
        <mxCell id="NuyFOrFrpUnFjrTJcSm_-23" value="" style="endArrow=classicThin;html=1;rounded=0;endFill=1;strokeWidth=2;" parent="1" edge="1">
          <mxGeometry width="50" height="50" relative="1" as="geometry">
            <mxPoint x="387" y="150" as="sourcePoint" />
            <mxPoint x="387" y="110" as="targetPoint" />
          </mxGeometry>
        </mxCell>
        <mxCell id="NuyFOrFrpUnFjrTJcSm_-24" value="故障恢复" style="text;html=1;strokeColor=none;fillColor=none;align=center;verticalAlign=middle;whiteSpace=wrap;rounded=0;" parent="1" vertex="1">
          <mxGeometry x="358" y="87" width="58" height="30" as="geometry" />
        </mxCell>
        <mxCell id="NuyFOrFrpUnFjrTJcSm_-25" value="故障确认" style="text;html=1;strokeColor=none;fillColor=none;align=center;verticalAlign=middle;whiteSpace=wrap;rounded=0;" parent="1" vertex="1">
          <mxGeometry x="277" y="87" width="58" height="30" as="geometry" />
        </mxCell>
        <mxCell id="NuyFOrFrpUnFjrTJcSm_-26" value="运维操作" style="text;html=1;strokeColor=none;fillColor=none;align=center;verticalAlign=middle;whiteSpace=wrap;rounded=0;" parent="1" vertex="1">
          <mxGeometry x="317" y="117" width="58" height="30" as="geometry" />
        </mxCell>
        <mxCell id="NuyFOrFrpUnFjrTJcSm_-27" value="" style="endArrow=none;html=1;rounded=0;strokeWidth=1;jumpSize=3;" parent="1" edge="1">
          <mxGeometry width="50" height="50" relative="1" as="geometry">
            <mxPoint x="67" y="356" as="sourcePoint" />
            <mxPoint x="67" y="346" as="targetPoint" />
          </mxGeometry>
        </mxCell>
        <mxCell id="NuyFOrFrpUnFjrTJcSm_-28" value="" style="endArrow=none;html=1;rounded=0;strokeWidth=1;jumpSize=3;" parent="1" edge="1">
          <mxGeometry width="50" height="50" relative="1" as="geometry">
            <mxPoint x="147" y="356" as="sourcePoint" />
            <mxPoint x="147" y="346" as="targetPoint" />
          </mxGeometry>
        </mxCell>
        <mxCell id="NuyFOrFrpUnFjrTJcSm_-29" value="" style="endArrow=none;html=1;rounded=0;strokeWidth=1;jumpSize=3;" parent="1" edge="1">
          <mxGeometry width="50" height="50" relative="1" as="geometry">
            <mxPoint x="227" y="356" as="sourcePoint" />
            <mxPoint x="227" y="346" as="targetPoint" />
          </mxGeometry>
        </mxCell>
        <mxCell id="NuyFOrFrpUnFjrTJcSm_-30" value="" style="endArrow=classic;html=1;rounded=0;strokeWidth=2;" parent="1" edge="1">
          <mxGeometry width="50" height="50" relative="1" as="geometry">
            <mxPoint x="27" y="346" as="sourcePoint" />
            <mxPoint x="437" y="346" as="targetPoint" />
          </mxGeometry>
        </mxCell>
        <mxCell id="NuyFOrFrpUnFjrTJcSm_-31" value="" style="endArrow=none;html=1;rounded=0;strokeWidth=1;jumpSize=3;" parent="1" edge="1">
          <mxGeometry width="50" height="50" relative="1" as="geometry">
            <mxPoint x="307" y="356" as="sourcePoint" />
            <mxPoint x="307" y="346" as="targetPoint" />
          </mxGeometry>
        </mxCell>
        <mxCell id="NuyFOrFrpUnFjrTJcSm_-32" value="" style="endArrow=none;html=1;rounded=0;strokeWidth=1;jumpSize=3;fontStyle=1" parent="1" edge="1">
          <mxGeometry width="50" height="50" relative="1" as="geometry">
            <mxPoint x="387" y="356" as="sourcePoint" />
            <mxPoint x="387" y="346" as="targetPoint" />
          </mxGeometry>
        </mxCell>
        <mxCell id="NuyFOrFrpUnFjrTJcSm_-33" value="time" style="text;html=1;strokeColor=none;fillColor=none;align=center;verticalAlign=middle;whiteSpace=wrap;rounded=0;" parent="1" vertex="1">
          <mxGeometry x="402" y="355" width="55" height="30" as="geometry" />
        </mxCell>
        <mxCell id="NuyFOrFrpUnFjrTJcSm_-34" value="" style="endArrow=classicThin;html=1;rounded=0;endFill=1;strokeWidth=2;" parent="1" edge="1">
          <mxGeometry width="50" height="50" relative="1" as="geometry">
            <mxPoint x="47" y="346" as="sourcePoint" />
            <mxPoint x="47" y="306" as="targetPoint" />
          </mxGeometry>
        </mxCell>
        <mxCell id="NuyFOrFrpUnFjrTJcSm_-35" value="业务恢复时间&lt;br&gt;(自动处理)" style="text;html=1;strokeColor=none;fillColor=none;align=center;verticalAlign=middle;whiteSpace=wrap;rounded=0;" parent="1" vertex="1">
          <mxGeometry x="450" y="325" width="85" height="30" as="geometry" />
        </mxCell>
        <mxCell id="NuyFOrFrpUnFjrTJcSm_-36" value="事件触发" style="text;html=1;strokeColor=none;fillColor=none;align=center;verticalAlign=middle;whiteSpace=wrap;rounded=0;" parent="1" vertex="1">
          <mxGeometry x="18" y="284" width="58" height="30" as="geometry" />
        </mxCell>
        <mxCell id="NuyFOrFrpUnFjrTJcSm_-37" value="" style="endArrow=classicThin;html=1;rounded=0;endFill=1;strokeWidth=1;" parent="1" edge="1">
          <mxGeometry width="50" height="50" relative="1" as="geometry">
            <mxPoint x="57" y="346" as="sourcePoint" />
            <mxPoint x="57" y="326" as="targetPoint" />
          </mxGeometry>
        </mxCell>
        <mxCell id="NuyFOrFrpUnFjrTJcSm_-38" value="" style="endArrow=classicThin;html=1;rounded=0;endFill=1;strokeWidth=1;" parent="1" edge="1">
          <mxGeometry width="50" height="50" relative="1" as="geometry">
            <mxPoint x="87" y="346" as="sourcePoint" />
            <mxPoint x="87" y="326" as="targetPoint" />
          </mxGeometry>
        </mxCell>
        <mxCell id="NuyFOrFrpUnFjrTJcSm_-39" value="" style="endArrow=classicThin;html=1;rounded=0;endFill=1;strokeWidth=1;" parent="1" edge="1">
          <mxGeometry width="50" height="50" relative="1" as="geometry">
            <mxPoint x="127" y="346" as="sourcePoint" />
            <mxPoint x="127" y="326" as="targetPoint" />
          </mxGeometry>
        </mxCell>
        <mxCell id="NuyFOrFrpUnFjrTJcSm_-40" value="" style="endArrow=classicThin;html=1;rounded=0;endFill=1;strokeWidth=2;" parent="1" edge="1">
          <mxGeometry width="50" height="50" relative="1" as="geometry">
            <mxPoint x="137" y="346" as="sourcePoint" />
            <mxPoint x="137" y="306" as="targetPoint" />
          </mxGeometry>
        </mxCell>
        <mxCell id="NuyFOrFrpUnFjrTJcSm_-41" value="N轮抑制" style="text;html=1;strokeColor=none;fillColor=none;align=center;verticalAlign=middle;whiteSpace=wrap;rounded=0;" parent="1" vertex="1">
          <mxGeometry x="67" y="304" width="58" height="30" as="geometry" />
        </mxCell>
        <mxCell id="NuyFOrFrpUnFjrTJcSm_-42" value="告警事件" style="text;html=1;strokeColor=none;fillColor=none;align=center;verticalAlign=middle;whiteSpace=wrap;rounded=0;" parent="1" vertex="1">
          <mxGeometry x="107" y="284" width="58" height="30" as="geometry" />
        </mxCell>
        <mxCell id="NuyFOrFrpUnFjrTJcSm_-43" value="告警处理" style="text;html=1;strokeColor=none;fillColor=none;align=center;verticalAlign=middle;whiteSpace=wrap;rounded=0;" parent="1" vertex="1">
          <mxGeometry x="179" y="284" width="58" height="30" as="geometry" />
        </mxCell>
        <mxCell id="NuyFOrFrpUnFjrTJcSm_-44" value="" style="endArrow=classicThin;html=1;rounded=0;endFill=1;strokeWidth=2;" parent="1" edge="1">
          <mxGeometry width="50" height="50" relative="1" as="geometry">
            <mxPoint x="206.83000000000015" y="346" as="sourcePoint" />
            <mxPoint x="206.83000000000015" y="306" as="targetPoint" />
          </mxGeometry>
        </mxCell>
        <mxCell id="NuyFOrFrpUnFjrTJcSm_-45" value="队列等待" style="text;html=1;strokeColor=none;fillColor=none;align=center;verticalAlign=middle;whiteSpace=wrap;rounded=0;" parent="1" vertex="1">
          <mxGeometry x="143" y="314" width="58" height="30" as="geometry" />
        </mxCell>
        <mxCell id="NuyFOrFrpUnFjrTJcSm_-46" value="" style="endArrow=classicThin;html=1;rounded=0;endFill=1;strokeWidth=2;" parent="1" edge="1">
          <mxGeometry width="50" height="50" relative="1" as="geometry">
            <mxPoint x="307" y="346" as="sourcePoint" />
            <mxPoint x="307" y="306" as="targetPoint" />
          </mxGeometry>
        </mxCell>
        <mxCell id="NuyFOrFrpUnFjrTJcSm_-47" value="自动决策" style="text;html=1;strokeColor=none;fillColor=none;align=center;verticalAlign=middle;whiteSpace=wrap;rounded=0;" parent="1" vertex="1">
          <mxGeometry x="227" y="314" width="58" height="30" as="geometry" />
        </mxCell>
        <mxCell id="NuyFOrFrpUnFjrTJcSm_-48" value="" style="endArrow=classicThin;html=1;rounded=0;endFill=1;strokeWidth=2;" parent="1" edge="1">
          <mxGeometry width="50" height="50" relative="1" as="geometry">
            <mxPoint x="387" y="347" as="sourcePoint" />
            <mxPoint x="387" y="307" as="targetPoint" />
          </mxGeometry>
        </mxCell>
        <mxCell id="NuyFOrFrpUnFjrTJcSm_-49" value="故障恢复" style="text;html=1;strokeColor=none;fillColor=none;align=center;verticalAlign=middle;whiteSpace=wrap;rounded=0;" parent="1" vertex="1">
          <mxGeometry x="358" y="284" width="58" height="30" as="geometry" />
        </mxCell>
        <mxCell id="NuyFOrFrpUnFjrTJcSm_-50" value="故障修复" style="text;html=1;strokeColor=none;fillColor=none;align=center;verticalAlign=middle;whiteSpace=wrap;rounded=0;" parent="1" vertex="1">
          <mxGeometry x="277" y="284" width="58" height="30" as="geometry" />
        </mxCell>
        <mxCell id="NuyFOrFrpUnFjrTJcSm_-51" value="结果确认" style="text;html=1;strokeColor=none;fillColor=none;align=center;verticalAlign=middle;whiteSpace=wrap;rounded=0;" parent="1" vertex="1">
          <mxGeometry x="317" y="314" width="58" height="30" as="geometry" />
        </mxCell>
        <mxCell id="NuyFOrFrpUnFjrTJcSm_-52" value="" style="endArrow=none;html=1;rounded=0;strokeWidth=1;jumpSize=3;" parent="1" edge="1">
          <mxGeometry width="50" height="50" relative="1" as="geometry">
            <mxPoint x="66" y="509" as="sourcePoint" />
            <mxPoint x="66" y="499" as="targetPoint" />
          </mxGeometry>
        </mxCell>
        <mxCell id="NuyFOrFrpUnFjrTJcSm_-53" value="" style="endArrow=none;html=1;rounded=0;strokeWidth=1;jumpSize=3;" parent="1" edge="1">
          <mxGeometry width="50" height="50" relative="1" as="geometry">
            <mxPoint x="146" y="509" as="sourcePoint" />
            <mxPoint x="146" y="499" as="targetPoint" />
          </mxGeometry>
        </mxCell>
        <mxCell id="NuyFOrFrpUnFjrTJcSm_-54" value="" style="endArrow=none;html=1;rounded=0;strokeWidth=1;jumpSize=3;" parent="1" edge="1">
          <mxGeometry width="50" height="50" relative="1" as="geometry">
            <mxPoint x="226" y="509" as="sourcePoint" />
            <mxPoint x="226" y="499" as="targetPoint" />
          </mxGeometry>
        </mxCell>
        <mxCell id="NuyFOrFrpUnFjrTJcSm_-55" value="" style="endArrow=classic;html=1;rounded=0;strokeWidth=2;" parent="1" edge="1">
          <mxGeometry width="50" height="50" relative="1" as="geometry">
            <mxPoint x="26" y="499" as="sourcePoint" />
            <mxPoint x="687" y="499" as="targetPoint" />
          </mxGeometry>
        </mxCell>
        <mxCell id="NuyFOrFrpUnFjrTJcSm_-56" value="" style="endArrow=none;html=1;rounded=0;strokeWidth=1;jumpSize=3;" parent="1" edge="1">
          <mxGeometry width="50" height="50" relative="1" as="geometry">
            <mxPoint x="306" y="509" as="sourcePoint" />
            <mxPoint x="306" y="499" as="targetPoint" />
          </mxGeometry>
        </mxCell>
        <mxCell id="NuyFOrFrpUnFjrTJcSm_-57" value="" style="endArrow=none;html=1;rounded=0;strokeWidth=1;jumpSize=3;fontStyle=1" parent="1" edge="1">
          <mxGeometry width="50" height="50" relative="1" as="geometry">
            <mxPoint x="386" y="509" as="sourcePoint" />
            <mxPoint x="386" y="499" as="targetPoint" />
          </mxGeometry>
        </mxCell>
        <mxCell id="NuyFOrFrpUnFjrTJcSm_-58" value="time" style="text;html=1;strokeColor=none;fillColor=none;align=center;verticalAlign=middle;whiteSpace=wrap;rounded=0;" parent="1" vertex="1">
          <mxGeometry x="652" y="506" width="55" height="30" as="geometry" />
        </mxCell>
        <mxCell id="NuyFOrFrpUnFjrTJcSm_-59" value="" style="endArrow=classicThin;html=1;rounded=0;endFill=1;strokeWidth=2;" parent="1" edge="1">
          <mxGeometry width="50" height="50" relative="1" as="geometry">
            <mxPoint x="46" y="499" as="sourcePoint" />
            <mxPoint x="46" y="459" as="targetPoint" />
          </mxGeometry>
        </mxCell>
        <mxCell id="NuyFOrFrpUnFjrTJcSm_-60" value="业务恢复时间&lt;br&gt;(自动失败+人工处理)" style="text;html=1;strokeColor=none;fillColor=none;align=center;verticalAlign=middle;whiteSpace=wrap;rounded=0;" parent="1" vertex="1">
          <mxGeometry x="702" y="476" width="125" height="30" as="geometry" />
        </mxCell>
        <mxCell id="NuyFOrFrpUnFjrTJcSm_-61" value="事件触发" style="text;html=1;strokeColor=none;fillColor=none;align=center;verticalAlign=middle;whiteSpace=wrap;rounded=0;" parent="1" vertex="1">
          <mxGeometry x="17" y="437" width="58" height="30" as="geometry" />
        </mxCell>
        <mxCell id="NuyFOrFrpUnFjrTJcSm_-62" value="" style="endArrow=classicThin;html=1;rounded=0;endFill=1;strokeWidth=1;" parent="1" edge="1">
          <mxGeometry width="50" height="50" relative="1" as="geometry">
            <mxPoint x="56" y="499" as="sourcePoint" />
            <mxPoint x="56" y="479" as="targetPoint" />
          </mxGeometry>
        </mxCell>
        <mxCell id="NuyFOrFrpUnFjrTJcSm_-63" value="" style="endArrow=classicThin;html=1;rounded=0;endFill=1;strokeWidth=1;" parent="1" edge="1">
          <mxGeometry width="50" height="50" relative="1" as="geometry">
            <mxPoint x="86" y="499" as="sourcePoint" />
            <mxPoint x="86" y="479" as="targetPoint" />
          </mxGeometry>
        </mxCell>
        <mxCell id="NuyFOrFrpUnFjrTJcSm_-64" value="" style="endArrow=classicThin;html=1;rounded=0;endFill=1;strokeWidth=1;" parent="1" edge="1">
          <mxGeometry width="50" height="50" relative="1" as="geometry">
            <mxPoint x="126" y="499" as="sourcePoint" />
            <mxPoint x="126" y="479" as="targetPoint" />
          </mxGeometry>
        </mxCell>
        <mxCell id="NuyFOrFrpUnFjrTJcSm_-65" value="" style="endArrow=classicThin;html=1;rounded=0;endFill=1;strokeWidth=2;" parent="1" edge="1">
          <mxGeometry width="50" height="50" relative="1" as="geometry">
            <mxPoint x="136" y="499" as="sourcePoint" />
            <mxPoint x="136" y="459" as="targetPoint" />
          </mxGeometry>
        </mxCell>
        <mxCell id="NuyFOrFrpUnFjrTJcSm_-66" value="N轮抑制" style="text;html=1;strokeColor=none;fillColor=none;align=center;verticalAlign=middle;whiteSpace=wrap;rounded=0;" parent="1" vertex="1">
          <mxGeometry x="66" y="457" width="58" height="30" as="geometry" />
        </mxCell>
        <mxCell id="NuyFOrFrpUnFjrTJcSm_-67" value="告警事件" style="text;html=1;strokeColor=none;fillColor=none;align=center;verticalAlign=middle;whiteSpace=wrap;rounded=0;" parent="1" vertex="1">
          <mxGeometry x="106" y="437" width="58" height="30" as="geometry" />
        </mxCell>
        <mxCell id="NuyFOrFrpUnFjrTJcSm_-68" value="告警处理" style="text;html=1;strokeColor=none;fillColor=none;align=center;verticalAlign=middle;whiteSpace=wrap;rounded=0;" parent="1" vertex="1">
          <mxGeometry x="178" y="437" width="58" height="30" as="geometry" />
        </mxCell>
        <mxCell id="NuyFOrFrpUnFjrTJcSm_-69" value="" style="endArrow=classicThin;html=1;rounded=0;endFill=1;strokeWidth=2;" parent="1" edge="1">
          <mxGeometry width="50" height="50" relative="1" as="geometry">
            <mxPoint x="205.83000000000015" y="499" as="sourcePoint" />
            <mxPoint x="205.83000000000015" y="459" as="targetPoint" />
          </mxGeometry>
        </mxCell>
        <mxCell id="NuyFOrFrpUnFjrTJcSm_-70" value="队列等待" style="text;html=1;strokeColor=none;fillColor=none;align=center;verticalAlign=middle;whiteSpace=wrap;rounded=0;" parent="1" vertex="1">
          <mxGeometry x="142" y="467" width="58" height="30" as="geometry" />
        </mxCell>
        <mxCell id="NuyFOrFrpUnFjrTJcSm_-71" value="" style="endArrow=classicThin;html=1;rounded=0;endFill=1;strokeWidth=2;" parent="1" edge="1">
          <mxGeometry width="50" height="50" relative="1" as="geometry">
            <mxPoint x="306" y="499" as="sourcePoint" />
            <mxPoint x="306" y="459" as="targetPoint" />
          </mxGeometry>
        </mxCell>
        <mxCell id="NuyFOrFrpUnFjrTJcSm_-72" value="自动决策" style="text;html=1;strokeColor=none;fillColor=none;align=center;verticalAlign=middle;whiteSpace=wrap;rounded=0;" parent="1" vertex="1">
          <mxGeometry x="226" y="467" width="58" height="30" as="geometry" />
        </mxCell>
        <mxCell id="NuyFOrFrpUnFjrTJcSm_-73" value="" style="endArrow=classicThin;html=1;rounded=0;endFill=1;strokeWidth=2;" parent="1" edge="1">
          <mxGeometry width="50" height="50" relative="1" as="geometry">
            <mxPoint x="386" y="499.9999999999998" as="sourcePoint" />
            <mxPoint x="386" y="460.0000000000002" as="targetPoint" />
          </mxGeometry>
        </mxCell>
        <mxCell id="NuyFOrFrpUnFjrTJcSm_-74" value="未恢复" style="text;html=1;strokeColor=none;fillColor=none;align=center;verticalAlign=middle;whiteSpace=wrap;rounded=0;" parent="1" vertex="1">
          <mxGeometry x="357" y="437" width="58" height="30" as="geometry" />
        </mxCell>
        <mxCell id="NuyFOrFrpUnFjrTJcSm_-75" value="故障修复" style="text;html=1;strokeColor=none;fillColor=none;align=center;verticalAlign=middle;whiteSpace=wrap;rounded=0;" parent="1" vertex="1">
          <mxGeometry x="276" y="437" width="58" height="30" as="geometry" />
        </mxCell>
        <mxCell id="NuyFOrFrpUnFjrTJcSm_-76" value="结果确认" style="text;html=1;strokeColor=none;fillColor=none;align=center;verticalAlign=middle;whiteSpace=wrap;rounded=0;" parent="1" vertex="1">
          <mxGeometry x="316" y="467" width="58" height="30" as="geometry" />
        </mxCell>
        <mxCell id="NuyFOrFrpUnFjrTJcSm_-77" value="" style="endArrow=none;html=1;rounded=0;strokeWidth=1;jumpSize=3;" parent="1" edge="1">
          <mxGeometry width="50" height="50" relative="1" as="geometry">
            <mxPoint x="466.5" y="509.9999999999998" as="sourcePoint" />
            <mxPoint x="466.5" y="499.9999999999998" as="targetPoint" />
          </mxGeometry>
        </mxCell>
        <mxCell id="NuyFOrFrpUnFjrTJcSm_-78" value="" style="endArrow=none;html=1;rounded=0;strokeWidth=1;jumpSize=3;" parent="1" edge="1">
          <mxGeometry width="50" height="50" relative="1" as="geometry">
            <mxPoint x="546.5" y="509.9999999999998" as="sourcePoint" />
            <mxPoint x="546.5" y="499.9999999999998" as="targetPoint" />
          </mxGeometry>
        </mxCell>
        <mxCell id="NuyFOrFrpUnFjrTJcSm_-79" value="" style="endArrow=none;html=1;rounded=0;strokeWidth=1;jumpSize=3;fontStyle=1" parent="1" edge="1">
          <mxGeometry width="50" height="50" relative="1" as="geometry">
            <mxPoint x="626.5" y="509.9999999999998" as="sourcePoint" />
            <mxPoint x="626.5" y="499.9999999999998" as="targetPoint" />
          </mxGeometry>
        </mxCell>
        <mxCell id="NuyFOrFrpUnFjrTJcSm_-80" value="告警通知" style="text;html=1;strokeColor=none;fillColor=none;align=center;verticalAlign=middle;whiteSpace=wrap;rounded=0;" parent="1" vertex="1">
          <mxGeometry x="428" y="438" width="59" height="30" as="geometry" />
        </mxCell>
        <mxCell id="NuyFOrFrpUnFjrTJcSm_-81" value="" style="endArrow=classicThin;html=1;rounded=0;endFill=1;strokeWidth=2;" parent="1" edge="1">
          <mxGeometry width="50" height="50" relative="1" as="geometry">
            <mxPoint x="455.8299999999999" y="499.9999999999998" as="sourcePoint" />
            <mxPoint x="455.8299999999999" y="460.0000000000002" as="targetPoint" />
          </mxGeometry>
        </mxCell>
        <mxCell id="NuyFOrFrpUnFjrTJcSm_-82" value="队列等待" style="text;html=1;strokeColor=none;fillColor=none;align=center;verticalAlign=middle;whiteSpace=wrap;rounded=0;" parent="1" vertex="1">
          <mxGeometry x="392" y="468" width="59" height="30" as="geometry" />
        </mxCell>
        <mxCell id="NuyFOrFrpUnFjrTJcSm_-83" value="" style="endArrow=classicThin;html=1;rounded=0;endFill=1;strokeWidth=2;" parent="1" edge="1">
          <mxGeometry width="50" height="50" relative="1" as="geometry">
            <mxPoint x="556" y="499.9999999999998" as="sourcePoint" />
            <mxPoint x="556" y="460.0000000000002" as="targetPoint" />
          </mxGeometry>
        </mxCell>
        <mxCell id="NuyFOrFrpUnFjrTJcSm_-84" value="问题定位" style="text;html=1;strokeColor=none;fillColor=none;align=center;verticalAlign=middle;whiteSpace=wrap;rounded=0;" parent="1" vertex="1">
          <mxGeometry x="476" y="468" width="59" height="30" as="geometry" />
        </mxCell>
        <mxCell id="NuyFOrFrpUnFjrTJcSm_-85" value="" style="endArrow=classicThin;html=1;rounded=0;endFill=1;strokeWidth=2;" parent="1" edge="1">
          <mxGeometry width="50" height="50" relative="1" as="geometry">
            <mxPoint x="636" y="499.9999999999998" as="sourcePoint" />
            <mxPoint x="636" y="460.0000000000002" as="targetPoint" />
          </mxGeometry>
        </mxCell>
        <mxCell id="NuyFOrFrpUnFjrTJcSm_-86" value="故障恢复" style="text;html=1;strokeColor=none;fillColor=none;align=center;verticalAlign=middle;whiteSpace=wrap;rounded=0;" parent="1" vertex="1">
          <mxGeometry x="607" y="438" width="59" height="30" as="geometry" />
        </mxCell>
        <mxCell id="NuyFOrFrpUnFjrTJcSm_-87" value="故障确认" style="text;html=1;strokeColor=none;fillColor=none;align=center;verticalAlign=middle;whiteSpace=wrap;rounded=0;" parent="1" vertex="1">
          <mxGeometry x="526" y="438" width="59" height="30" as="geometry" />
        </mxCell>
        <mxCell id="NuyFOrFrpUnFjrTJcSm_-88" value="运维操作" style="text;html=1;strokeColor=none;fillColor=none;align=center;verticalAlign=middle;whiteSpace=wrap;rounded=0;" parent="1" vertex="1">
          <mxGeometry x="566" y="468" width="59" height="30" as="geometry" />
        </mxCell>
        <mxCell id="NuyFOrFrpUnFjrTJcSm_-89" value="" style="endArrow=none;html=1;rounded=0;strokeWidth=1;jumpSize=3;" parent="1" edge="1">
          <mxGeometry width="50" height="50" relative="1" as="geometry">
            <mxPoint x="47" y="227" as="sourcePoint" />
            <mxPoint x="46.90000000000009" y="147" as="targetPoint" />
          </mxGeometry>
        </mxCell>
        <mxCell id="NuyFOrFrpUnFjrTJcSm_-90" value="" style="endArrow=classic;startArrow=classic;html=1;rounded=0;fontSize=9;strokeWidth=1;" parent="1" edge="1">
          <mxGeometry width="50" height="50" relative="1" as="geometry">
            <mxPoint x="47" y="221" as="sourcePoint" />
            <mxPoint x="387" y="221" as="targetPoint" />
          </mxGeometry>
        </mxCell>
        <mxCell id="NuyFOrFrpUnFjrTJcSm_-92" value="" style="endArrow=none;html=1;rounded=0;strokeWidth=1;jumpSize=3;fontStyle=1" parent="1" edge="1">
          <mxGeometry width="50" height="50" relative="1" as="geometry">
            <mxPoint x="207" y="187" as="sourcePoint" />
            <mxPoint x="206.89999999999998" y="149" as="targetPoint" />
          </mxGeometry>
        </mxCell>
        <mxCell id="NuyFOrFrpUnFjrTJcSm_-94" value="" style="endArrow=classic;startArrow=classic;html=1;rounded=0;fontSize=9;strokeWidth=1;" parent="1" edge="1">
          <mxGeometry width="50" height="50" relative="1" as="geometry">
            <mxPoint x="47" y="182.79000000000002" as="sourcePoint" />
            <mxPoint x="207" y="183" as="targetPoint" />
          </mxGeometry>
        </mxCell>
        <mxCell id="NuyFOrFrpUnFjrTJcSm_-95" value="故障发现时间T0" style="text;html=1;strokeColor=none;fillColor=none;align=center;verticalAlign=middle;whiteSpace=wrap;rounded=0;" parent="1" vertex="1">
          <mxGeometry x="80" y="159" width="90" height="30" as="geometry" />
        </mxCell>
        <mxCell id="NuyFOrFrpUnFjrTJcSm_-96" value="" style="endArrow=classic;startArrow=classic;html=1;rounded=0;fontSize=9;strokeWidth=1;" parent="1" edge="1">
          <mxGeometry width="50" height="50" relative="1" as="geometry">
            <mxPoint x="47" y="203.00000000000006" as="sourcePoint" />
            <mxPoint x="307" y="203" as="targetPoint" />
          </mxGeometry>
        </mxCell>
        <mxCell id="NuyFOrFrpUnFjrTJcSm_-97" value="定位定界时间T1" style="text;html=1;strokeColor=none;fillColor=none;align=center;verticalAlign=middle;whiteSpace=wrap;rounded=0;" parent="1" vertex="1">
          <mxGeometry x="135" y="180" width="90" height="30" as="geometry" />
        </mxCell>
        <mxCell id="NuyFOrFrpUnFjrTJcSm_-98" value="故障恢复时间T2" style="text;html=1;strokeColor=none;fillColor=none;align=center;verticalAlign=middle;whiteSpace=wrap;rounded=0;" parent="1" vertex="1">
          <mxGeometry x="181" y="198" width="90" height="30" as="geometry" />
        </mxCell>
        <mxCell id="nbZxwhyuJBsfZXZEuW3B-1" value="业界1-5-10目标，1分钟发现，5分钟定界，10分钟恢复" style="text;html=1;strokeColor=none;fillColor=none;align=center;verticalAlign=middle;whiteSpace=wrap;rounded=0;" parent="1" vertex="1">
          <mxGeometry x="271" y="10" width="307" height="30" as="geometry" />
        </mxCell>
      </root>
    </mxGraphModel>
  </diagram>
</mxfile>
